<svg version="1.1" id="Layer_1" xmlns="http://www.w3.org/2000/svg" x="0" y="0" viewBox="0 0 512 512" style="enable-background:new 0 0 512 512" xml:space="preserve"><style>.st1{fill:#dfdfdf}.st2{fill:#4a555f}.st3{fill:#ffd452}.st4{fill:#f58e6f}</style><path class="st1" d="M306.883 129.031a44.567 44.567 0 0 0-6.741-1.11 47.659 47.659 0 0 0-5.076-.258h-80.101c-.436 0-.892 0-1.328.02a50.698 50.698 0 0 0-6.543.575c-25.22 3.807-44.63 25.636-44.63 51.907v132.623h31.168V501.54H316.36V312.787h31.188V180.164c0-24.883-17.388-45.78-40.665-51.133z"/><path class="st2" d="M257.688 10.461c-30.4 0-55.131 24.731-55.131 55.13s24.731 55.13 55.131 55.13c30.399 0 55.13-24.731 55.13-55.13 0-30.398-24.731-55.13-55.13-55.13zm0 104.312c-27.12 0-49.183-22.063-49.183-49.182s22.063-49.182 49.183-49.182c27.119 0 49.182 22.063 49.182 49.182s-22.063 49.182-49.182 49.182z"/><path class="st3" d="M257.687 23.35c-23.293 0-42.243 18.95-42.243 42.243 0 23.293 18.95 42.243 42.243 42.243 23.293 0 42.243-18.95 42.243-42.243.001-23.293-18.95-42.243-42.243-42.243z"/><path class="st2" d="M295.056 114.773h-80.111c-36.048 0-65.375 29.328-65.375 65.376v145.513h31.17v175.871h5.948V215.24h-5.948v104.475h-25.222V180.15c0-32.769 26.659-59.428 59.427-59.428h80.111c32.768 0 59.427 26.66 59.427 59.428v139.565H329.23V215.24h-5.948v286.293h5.948v-175.87h31.2V180.15c.001-36.048-29.326-65.377-65.374-65.377z"/><path class="st2" d="M252.012 355.539h5.948v145.995h-5.948z"/><path class="st3" d="M257.69 23.346c-23.297 0-42.231 18.955-42.231 42.251 0 22.187 17.21 40.447 39 42.093h6.464c21.79-1.646 39.019-19.906 39.019-42.093-.001-23.297-18.955-42.251-42.252-42.251z"/><path class="st2" d="M145.024 345.666h5.948v155.868h-5.948z"/><path class="st1" d="M131.245 327.453V184.49c-.33-.008-8.959-.012-9.29-.012H55.06c-23.254 0-42.172 18.927-42.172 42.192v109.088h6.185v-79.803H38.9v89.709h.007v155.868h99.178v-174.08h-6.84z"/><path class="st2" d="M90.752 84.502c-25.65 0-46.519 20.869-46.519 46.518s20.869 46.518 46.519 46.518h.004c12.424 0 24.104-4.839 32.89-13.624 8.787-8.787 13.625-20.468 13.625-32.895-.001-25.648-20.869-46.517-46.519-46.517zm28.688 75.207c-7.663 7.662-17.849 11.881-28.685 11.881h-.003c-22.371 0-40.571-18.198-40.571-40.57 0-22.371 18.199-40.569 40.571-40.569 22.371 0 40.571 18.198 40.571 40.569-.001 10.837-4.221 21.026-11.883 28.689z"/><path class="st3" d="M90.752 97.389c-18.544 0-33.631 15.087-33.631 33.632 0 18.543 15.087 33.63 33.631 33.63s33.63-15.087 33.63-33.63c0-18.545-15.086-33.632-33.63-33.632z"/><path class="st4" d="m71.119 174.565 12.579 23.518h14.107l12.579-23.518zM97.805 198.083H83.698l-12.579 77.763 18.583 21.844 18.869-21.844z"/><path class="st2" d="m66.156 171.59 15.76 29.467h17.672l15.76-29.467H66.156zm29.867 23.519H85.48l-9.397-17.571h29.338l-9.398 17.571z"/><path class="st2" d="M100.396 195.109h-19.23l-13.202 81.617 21.721 25.533 22.018-25.488-11.307-81.662zm-26.122 79.856 11.955-73.908h8.985l10.226 73.863-15.721 18.2-15.445-18.155zM85.522 373.092h5.948v128.441h-5.948z"/><path class="st2" d="M121.955 171.592H55.059C24.699 171.592 0 196.3 0 226.671v121.974h26.013v152.888h5.948V255.955h-5.948v86.743H5.948V226.671c0-27.091 22.031-49.131 49.111-49.131h66.896c3.471 0 6.93.364 10.28 1.084l1.249-5.816a54.981 54.981 0 0 0-11.529-1.216z"/><path class="st4" d="m233.247 117.748 15.668 29.294h17.571l15.668-29.294zM266.486 147.042h-17.571l-15.668 96.856 23.146 27.208 23.502-27.208z"/><path class="st2" d="m228.283 114.773 18.849 35.243h21.135l18.85-35.243h-58.834zm36.42 29.295h-14.006l-12.487-23.347h38.98l-12.487 23.347z"/><path class="st2" d="M269.076 144.068h-22.693l-16.291 100.711 26.283 30.896 26.651-30.852-13.95-100.755zm-32.674 98.949 15.044-93h12.448l12.87 92.956-20.355 23.563-20.007-23.519z"/><path class="st4" d="m233.247 117.748 15.668 29.294h17.571l15.668-29.294zM266.486 147.042h-17.571l-15.668 96.856 23.146 27.208 23.502-27.208z"/><path class="st2" d="m228.283 114.773 18.849 35.243h21.135l18.85-35.243h-58.834zm36.42 29.295h-14.006l-12.487-23.347h38.98l-12.487 23.347z"/><path class="st2" d="M269.076 144.068h-22.693l-16.291 100.711 26.283 30.896 26.651-30.852-13.95-100.755zm-32.674 98.949 15.044-93h12.448l12.87 92.956-20.355 23.563-20.007-23.519z"/><path class="st1" d="M456.94 184.478h-66.896c-.331 0-8.96.004-9.29.012v142.963h-6.839v174.08h99.178V345.665h.007v-89.709h19.827v79.803h6.185V226.67c0-23.265-18.918-42.192-42.172-42.192z"/><path class="st2" d="M421.248 84.502c-25.65 0-46.519 20.869-46.519 46.518 0 12.427 4.839 24.108 13.625 32.895 8.786 8.785 20.465 13.624 32.89 13.624h.004c25.65 0 46.518-20.869 46.518-46.518 0-25.65-20.868-46.519-46.518-46.519zm0 87.088h-.004c-10.835 0-21.022-4.219-28.684-11.881-7.663-7.663-11.883-17.852-11.883-28.689 0-22.371 18.2-40.569 40.571-40.569 22.37 0 40.57 18.198 40.57 40.569 0 22.372-18.2 40.57-40.57 40.57z"/><path class="st3" d="M421.248 97.389c-18.544 0-33.63 15.087-33.63 33.632 0 18.543 15.086 33.63 33.63 33.63 18.544 0 33.631-15.087 33.631-33.63 0-18.545-15.087-33.632-33.631-33.632z"/><path class="st2" d="M456.941 171.592h-66.896c-3.89 0-7.768.409-11.529 1.216l1.249 5.816a49.028 49.028 0 0 1 10.28-1.084h66.896c27.08 0 49.111 22.04 49.111 49.131v116.026h-20.065v-86.743h-5.948v245.579h5.948V348.646H512V226.671c0-30.371-24.699-55.079-55.059-55.079z"/><path class="st4" d="m401.615 174.565 12.58 23.518h14.107l12.579-23.518zM428.302 198.083h-14.107l-10.767 77.763 18.87 21.844 18.583-21.844z"/><path class="st2" d="m396.651 171.59 15.761 29.467h17.672l15.76-29.467h-49.193zm29.869 23.519h-10.543l-9.398-17.571h29.339l-9.398 17.571z"/><path class="st2" d="M430.834 195.109h-19.23l-11.307 81.662 22.018 25.488 21.721-25.533-13.202-81.617zm-8.554 98.012-15.721-18.2 10.226-73.863h8.985l11.955 73.908-15.445 18.155zM361.027 345.666h5.948v155.868h-5.948zM420.53 373.092h5.948v128.441h-5.948z"/></svg>